<svg width="902" height="820" viewBox="0 0 902 820" fill="none" xmlns="http://www.w3.org/2000/svg">
<g clip-path="url(#clip0_6_4)">
<path d="M665.92 819.92C614.06 819.92 562.2 819.92 510.33 819.92C510.83 816.38 508.76 813.46 507.96 810.24C506.49 804.32 503.6 798.89 502.39 792.82C501.41 787.88 498.76 783.32 498.54 778.09C498.46 776.23 497.83 774.36 497.24 772.56C495.9 768.49 495.35 768.1 491.77 770.31C485.51 774.16 478.79 776.84 471.99 779.57C465.1 782.33 458.34 784.39 450.84 784.2C445.83 784.07 440.95 783.99 436.4 781.51C434.88 780.68 433.17 780.15 431.5 779.64C426.46 778.08 421.52 776.34 417.14 773.26C415.72 772.26 414.09 771.52 412.52 770.75C411.09 770.04 409.93 770.39 409.38 771.97C408.96 773.21 408.56 774.47 408.32 775.76C407.41 780.64 406.34 785.46 404.97 790.24C404.28 792.64 402.35 794.51 402.39 797.15C402.44 800.63 400.86 803.67 399.54 806.73C397.69 811.01 396.44 815.47 395.17 819.93C343.6 819.93 292.03 819.93 240.46 819.93C240.52 818.3 241.05 816.79 241.51 815.24C242.89 810.61 244.63 806.12 246.31 801.59C248.39 795.99 249.91 790.16 252.19 784.64C256.41 774.38 260.39 764.03 264.73 753.82C267.93 746.29 271.61 739 274.81 731.48C277.89 724.26 281.8 717.39 285.28 710.34C286.51 707.85 287.41 705.21 288.67 702.74C292.64 694.94 297.36 687.55 301.26 679.7C303.78 674.62 306.92 669.83 310.34 665.27C312.6 662.25 312.65 661.1 310.71 657.71C309.77 656.06 309.01 654.3 307.97 652.72C302.92 644.95 299.39 636.51 296.23 627.82C294.57 623.25 295.36 619.53 297.83 615.82C300.26 612.17 302.67 608.5 305.05 604.84C311.02 595.61 319.62 589.31 328.23 583.04C331.21 580.87 334.89 579.27 338.94 579.86C342.27 580.35 345.58 580.9 348.91 581.39C355.17 582.31 361.07 584.53 367.04 586.48C369.46 587.27 370.22 586.94 370.29 584.65C370.43 580.12 370.33 575.57 370.28 571.04C370.27 569.82 369.8 568.72 368.74 568.02C362.5 563.9 357.27 558.53 351.39 553.96C344.89 548.91 339.37 542.84 333.86 536.8C332.47 535.28 331.09 533.82 329.47 532.59C327.38 531 326.73 531 325.26 533.24C323.99 535.18 322.45 536.46 320.3 537.31C318.7 537.94 317.28 539.07 315.85 540.09C314.78 540.86 313.74 541.59 312.48 542.08C308.13 543.76 304.22 546.31 300.23 548.66C297.85 550.06 295.8 552.19 293.28 553.18C289.22 554.78 284.93 555.86 280.66 556.87C278.06 557.49 275.6 558.28 273.27 559.56C271.86 560.33 270.39 561.4 268.75 560.94C263.84 559.57 259.05 561.13 254.46 562.04C248.72 563.17 243.28 563.89 237.64 562C236.02 561.45 234.33 561.69 233.57 563.56C230.85 570.21 226.33 575.89 223.65 582.59C221.55 587.84 218.27 592.53 216.42 598.01C215.24 601.51 213.5 605 211.75 608.38C210.89 610.04 210.8 611.59 212.03 613.29C216.63 619.62 219.71 626.69 221.9 634.18C223.13 638.38 224.14 642.65 225.32 646.83C227.61 654.91 228.63 663.07 229.38 671.38C230.48 683.51 229.78 695.61 229.43 707.71C229.31 711.89 228.4 716.09 227.71 720.27C226.03 730.48 225.52 740.86 224.21 751.15C222.63 763.54 219.69 775.6 216.7 787.63C213.99 798.52 210.85 809.35 207.02 819.95C138.16 819.95 69.31 819.95 0.450012 819.95C0.450012 774.24 0.450012 728.53 0.450012 682.82C0.880012 682.43 1.56 682.1 1.69 681.63C3.18 675.92 6.84003 671.12 8.53003 665.53C9.81003 661.27 11.78 657.32 14.03 653.6C15.78 650.71 17.22 647.73 18.74 644.75C21.4 639.55 23.96 634.29 26.89 629.21C29.24 625.14 32.18 621.5 34.57 617.53C38 611.83 42.15 606.75 46.61 601.95C54.06 593.93 62.28 586.71 70.68 579.69C72.15 578.46 73.7 577.41 75.37 576.47C82.24 572.6 88.67 567.96 96.03 564.97C98 564.17 99.52 562.82 100.12 560.67C101.86 554.47 104.53 548.63 107.52 542.98C110.26 537.79 111.9 532.13 114.76 527.01C116.53 523.83 118.83 520.98 120.42 517.66C121.55 515.3 122.48 512.85 123.77 510.53C125.97 506.57 128.19 502.63 130.5 498.73C132.37 495.57 132.66 492.45 130.11 489.37C127.54 486.27 125.76 482.82 125.81 478.6C125.82 477.51 125.15 476.37 124.65 475.32C123.93 473.83 123.56 472.27 123.62 470.65C123.76 466.94 122.96 463.37 122.14 459.8C121.02 454.93 121.52 449.92 120.97 444.98C120.66 442.16 121.62 438.94 121.56 435.87C121.32 422.69 123.55 410.03 129.05 397.98C131.9 391.74 134.57 385.43 138.08 379.5C141.08 374.43 145.03 370.13 148.73 365.63C151.41 362.36 154.03 358.86 157.35 356.34C161.99 352.81 166.78 349.53 171.33 345.83C176.49 341.64 177.32 342.45 172.55 335.54C172.39 335.3 172.18 335.08 171.95 334.9C168.33 331.99 166.12 328 163.77 324.13C162.78 322.51 162.03 320.72 160.93 319.19C155.62 311.8 151.75 303.58 147.25 295.72C144.72 291.3 142.97 286.43 140.75 281.82C139.1 278.4 136.68 275.4 135.31 271.81C133.8 267.84 132.17 263.92 130.41 260.05C126.46 251.37 124.55 242.36 125.01 232.78C125.27 227.38 126.02 222.39 130.02 218.31C135.34 212.89 140.66 207.66 149.29 209.8C149.71 209.9 150.17 209.9 150.6 209.85C156.07 209.14 161.35 210.08 166.6 211.52C173.51 213.41 180.68 214.61 187.32 217.2C197.5 221.17 208.09 224.27 217.52 230.06C219.62 231.35 221.89 232.7 224.25 233.15C229.27 234.1 233.58 236.77 237.83 239.07C246.71 243.86 256.02 247.72 264.9 252.52C278.13 259.68 291.82 265.99 305.03 273.23C307.21 274.43 309.68 275.21 311.63 276.69C317.29 280.97 324.04 283.21 330.05 286.83C332.21 288.13 334.07 287.11 333.77 284.65C333.11 279.19 334.88 273.89 334.43 268.46C334.13 264.94 334.92 261.46 335.75 258.04C336.44 255.2 337.51 252.42 337.87 249.54C338.56 243.97 342.13 240.88 346.82 239.17C352.99 236.92 359.37 235.17 365.96 234.52C370.67 234.05 371.22 233.55 371.34 228.97C371.36 228.09 371.37 227.21 371.33 226.33C371.13 222.49 370.4 221.65 366.65 221.48C359.73 221.17 353.25 218.6 346.44 217.71C346.16 217.67 345.85 217.58 345.62 217.41C342.02 214.86 337.73 214.46 333.61 213.49C332.05 213.12 330.52 212.61 328.97 212.17C321.05 209.92 313.72 206.28 306.41 202.61C302.61 200.7 299.09 198.35 295.74 195.75C293.38 193.92 291.73 191.8 291.75 188.39C291.76 185.44 291.86 182.66 292.63 179.76C293.82 175.25 293.86 170.38 295.44 166.05C297.8 159.6 299.31 152.92 301.55 146.45C303.39 141.11 306.15 135.98 305.85 130.04C305.8 129.09 306.28 128 306.8 127.15C310.62 120.87 312.6 113.77 315.44 107.07C318.86 99.0201 321.8 90.7401 325.3 82.7101C326.35 80.2901 326.35 77.4901 328.05 75.3501C329.56 73.4501 330.17 71.2001 330.74 68.9201C331.02 67.7801 331.25 66.6601 331.8 65.5901C336.42 56.6401 341 47.6601 345.6 38.6901C346.87 36.2201 347.93 33.6101 349.51 31.3501C352.22 27.4901 353.2 22.8601 355.61 18.8201C357.56 15.5401 360.37 12.9401 362 9.4401C364.06 5.0201 367.46 2.05011 372.55 1.26011C375.81 0.760106 377.54 1.2201 379.08 4.1901C380.63 7.1801 381.7 10.3401 381.85 13.8101C382.03 17.7901 381.12 21.6601 381 25.5801C380.74 33.4701 379.78 41.2601 378.86 49.0901C378.31 53.7301 377.09 58.2801 376.9 62.9401C376.71 67.5001 376.11 71.9801 375.33 76.4501C374.73 79.9001 373.92 83.3201 373.43 86.7801C372.65 92.2801 371.95 97.7901 371.45 103.31C371.19 106.25 370.05 108.96 369.75 111.9C369.1 118.28 368.95 124.73 367.21 130.98C366.51 133.5 367.09 134.2 369.85 134.97C372.94 135.83 376.17 136.21 379.07 137.75C380.79 138.67 382.08 138.14 383.02 136.35C384.52 133.47 385.56 130.46 386.34 127.31C388.54 118.45 393.21 111.64 402.09 108.15C404.66 107.14 407.24 107.21 409.82 106.82C415.57 105.95 421.29 104.31 427.18 105.88C427.59 105.99 428.07 105.98 428.49 105.88C435.16 104.43 441.92 105.23 448.63 105.07C451.71 105 454.72 104.61 457.77 104.11C463.11 103.23 468.56 102.93 473.88 104.39C475.53 104.84 476.98 104.74 478.59 104.31C481.44 103.55 484.35 103.23 487.26 104.12C491.06 105.28 494.99 105.71 498.92 105.99C501.65 106.18 504.01 107.08 506.37 108.32C513.48 112.05 517.55 117.97 519.19 125.71C519.86 128.88 521.24 131.8 522.53 134.75C523.31 136.54 524.67 137.06 526.47 136.51C529.69 135.53 532.88 134.47 536.11 133.54C538.4 132.89 539.09 131.57 538.57 129.26C537.35 123.86 536.33 118.44 535.98 112.86C535.65 107.48 534.22 102.19 533.48 96.8601C532.3 88.3301 531.63 79.7201 529.67 71.3001C528.7 67.1301 528.86 62.8601 528.56 58.6301C527.85 48.4601 524.94 38.5501 524.9 28.2801C524.88 22.8801 524.07 17.5101 524.21 12.0901C524.29 8.76012 525.32 5.77012 526.85 2.90012C527.55 1.58012 528.54 0.0501235 530.01 0.0901235C533.58 0.200124 537.25 0.110094 540.12 3.06009C543.92 6.97009 545.72 12.2101 549.23 16.3001C551.96 19.4701 552.69 23.6401 554.59 27.2401C562.29 41.8201 570.62 56.1001 576.42 71.6201C577.24 73.8001 579.05 75.5501 579.5 77.9001C580.08 80.9801 581.45 83.7101 582.91 86.4201C583.67 87.8301 584.41 89.3001 584.86 90.8301C587.23 98.9801 590.79 106.69 593.57 114.69C595.98 121.64 600.96 127.75 600.4 135.67C600.37 136.08 600.6 136.52 600.77 136.93C604.35 145.27 607.16 153.86 609.62 162.6C611.4 168.93 613.77 175.05 614.52 181.68C615.18 187.58 613.14 192.61 608.22 195.97C602.88 199.62 597.05 202.28 591.23 205C580.6 209.97 569.45 213.57 558.22 216.74C551.65 218.6 544.93 220.22 538.16 221.43C537.14 221.61 536.06 221.75 535.41 222.62C533.56 225.11 534.05 227.96 534.57 230.65C535.06 233.18 537.34 233.24 539.45 233.43C546.19 234.02 552.76 235.49 559.03 238.04C563.2 239.74 566.65 242.25 567.73 247.12C569.37 254.55 571.58 261.86 571.23 269.61C571.14 271.5 571.24 273.44 571.58 275.29C572.03 277.74 572.5 280.08 572.08 282.65C571.56 285.83 573.51 287.17 576.28 285.41C581.23 282.26 586.96 280.65 591.71 277.17C593 276.22 594.36 275.31 595.82 274.65C604.49 270.76 612.42 265.48 620.99 261.38C629.7 257.21 638.11 252.37 646.82 248.27C659.22 242.44 671.08 235.46 684.01 230.76C687.89 229.35 691.12 226.64 694.94 225.18C704.77 221.42 714.32 216.89 724.56 214.22C727.96 213.33 731.53 212.89 734.73 211.55C743.24 208.01 752.26 209.08 761.05 208.15C763.19 207.92 765.38 208.83 767.26 210.05C769.11 211.24 771.05 212.34 772.69 213.77C777.22 217.73 780.42 222.55 780.91 228.7C781.61 237.57 780.57 246.22 777.11 254.5C773.34 263.54 770.16 272.83 764.84 281.16C761.99 285.63 760.81 290.9 758.17 295.47C752.82 304.71 747.4 313.91 741.93 323.08C739.61 326.96 737.31 330.87 733.89 333.99C732.51 335.24 731.54 336.98 730.53 338.58C729.74 339.84 729.79 341.27 731.18 342.04C736.33 344.9 739.57 350.22 745.07 352.68C746.9 353.5 748.67 354.78 750.02 356.27C754.72 361.46 758.9 367.11 763.63 372.3C765.87 374.76 767.53 377.77 769.28 380.63C772.42 385.76 774.42 391.44 776.87 396.9C779.55 402.9 782.19 408.96 782.24 415.75C782.25 416.89 782.69 418.05 783.08 419.15C784.25 422.52 784.55 425.98 784.57 429.53C784.6 434.21 784.62 438.88 784.95 443.57C785.26 448.04 785.32 452.87 783.97 457.05C781.75 463.93 782.59 471.22 779.96 478.07C778.68 481.41 778.13 485.04 775.89 488.02C773.23 491.57 773.61 495.12 775.93 498.62C782 507.76 785.73 518.2 791.85 527.33C793.7 530.1 794.27 533.57 795.82 536.59C799.57 543.86 803.38 551.11 805.47 559.11C806.05 561.33 807.6 562.93 809.78 563.8C817.02 566.7 823.33 571.27 830.1 575.02C832.56 576.38 834.86 578.04 836.77 579.99C840.55 583.84 845.04 586.82 848.95 590.55C855.22 596.53 861.42 602.55 866.57 609.44C873.29 618.44 879.43 627.88 884.32 638.09C886.08 641.77 887.27 645.82 889.61 649.1C895.23 656.99 897.78 666.19 901.49 674.9C901.49 723.25 901.49 771.59 901.49 819.94C834.1 819.94 766.71 819.94 699.31 819.94C698.15 815.56 696.34 811.39 695 807.05C690.79 793.34 687.31 779.47 684.4 765.44C683.57 761.44 682.38 757.49 681.8 753.46C680.81 746.54 680.2 739.55 679.52 732.61C678.53 722.5 675.99 712.49 676.89 702.21C676.94 701.66 676.67 701.07 676.55 700.5C674.73 691.94 675.78 683.31 676.14 674.73C676.29 671.13 677.11 667.52 677.16 663.86C677.22 659.31 677.57 654.68 679.12 650.47C681.49 644.03 682.12 637.18 684.71 630.75C687.28 624.38 689.41 617.86 693.65 612.37C695.05 610.56 694.92 609.17 694.13 607.19C692.21 602.33 688.97 598 688.27 592.65C688.2 592.11 687.76 591.61 687.49 591.1C682.65 582.1 677.77 573.12 672.99 564.08C671.24 560.78 670.98 560.52 667.21 561.19C663 561.94 658.81 562.03 654.56 561.53C648.66 560.84 642.89 558.74 636.81 559.88C636.16 560 635.33 559.72 634.71 559.39C628.17 555.88 620.92 554.61 613.87 552.7C612.26 552.26 610.87 551.59 609.66 550.48C605.31 546.48 599.84 544.21 594.89 541.17C589.66 537.95 583.38 536.39 579.66 530.92C579.14 530.15 578.13 529.58 577.44 530.42C576.03 532.13 573.97 533.02 572.6 534.83C567.91 541.05 562.34 546.56 556.34 551.4C550.22 556.34 544.54 561.87 537.89 566.16C536.54 567.03 535.84 568.25 535.82 569.81C535.78 574.06 535.67 578.31 535.82 582.55C535.91 585.13 536.79 585.64 539.19 585.05C539.76 584.91 540.29 584.64 540.84 584.46C549.34 581.66 558.01 579.63 566.89 578.52C569.14 578.24 571.1 578.72 573.22 579.65C578.11 581.81 582.25 584.91 586.32 588.32C593.44 594.3 599.63 601.04 604.58 608.89C606.29 611.6 607.8 614.45 609.35 617.26C610.28 618.96 610.95 620.83 610.46 622.75C609.28 627.43 608.27 632.24 606.08 636.52C602.58 643.4 599.28 650.42 594.9 656.81C593.07 659.48 593.64 661.77 595.33 664.05C596.55 665.69 597.8 667.28 598.93 669C602.53 674.51 605.57 680.33 608.63 686.12C610.89 690.38 613.81 694.27 615.69 698.72C620.13 709.2 625.97 719 630.64 729.37C632.08 732.57 633.16 735.99 635.01 738.93C638.95 745.18 640.97 752.26 643.77 758.95C649.99 773.77 656.03 788.7 660.99 804.02C662.77 809.28 665.01 814.39 665.92 819.92ZM432.91 170.58C433.02 163.63 429.06 159.89 421.52 159.72C414.79 159.57 412.31 163.46 412 169.74C411.65 176.86 415.42 180.2 423.42 180.35C428.81 180.46 432.82 176.32 432.91 170.58ZM482.28 159.89C476.07 159.75 472.07 163.53 471.9 169.7C471.71 176.48 476.16 180.48 483.88 180.46C488.92 180.45 492.94 175.98 493.1 170.21C493.27 163.7 489.44 160.04 482.28 159.89Z" fill="#404040"/>
</g>
<defs>
<clipPath id="clip0_6_4">
<rect width="902" height="820" fill="white"/>
</clipPath>
</defs>
</svg>
